<svg width="111" height="109" viewBox="0 0 111 109" fill="none" xmlns="http://www.w3.org/2000/svg">
<path d="M10.4632 87.6386C6.98344 87.6386 4.15256 84.6717 4.15256 81.0248V21.1182C4.15256 17.4713 6.98344 14.5044 10.4632 14.5044H99.0983C102.578 14.5044 105.409 17.4713 105.409 21.1182V81.0253C105.409 84.6722 102.578 87.6391 99.0983 87.6391H10.4632V87.6386Z" fill="#F9F6F6"/>
<path d="M10.9254 81.0253V21.1182C10.9254 17.4718 13.7563 14.5044 17.236 14.5044H10.4632C6.9839 14.5044 4.15256 17.4713 4.15256 21.1182V81.0253C4.15256 84.6717 6.98344 87.6391 10.4632 87.6391H17.2365C13.7568 87.6386 10.9254 84.6717 10.9254 81.0253Z" fill="white"/>
<path d="M98.6356 81.0253V21.1182C98.6356 17.4718 95.8047 14.5044 92.325 14.5044H99.0983C102.578 14.5044 105.409 17.4713 105.409 21.1182V81.0253C105.409 84.6717 102.578 87.6391 99.0983 87.6391H92.325C95.8042 87.6386 98.6356 84.6717 98.6356 81.0253Z" fill="#E2E2E2"/>
<path d="M101.525 75.2172C101.525 76.6164 100.433 77.7611 99.0978 77.7611H10.4631C9.128 77.7611 8.03583 76.6164 8.03583 75.2172V21.118C8.03583 19.7187 9.128 18.5741 10.4631 18.5741H99.0982C100.433 18.5741 101.525 19.7187 101.525 21.118V75.2172H101.525Z" fill="#FEFEFE"/>
<path d="M67.4011 87.6383H42.1591V98.3626H67.4011V87.6383Z" fill="#CECECE"/>
<path d="M48.9325 87.6383H42.1591V98.3626H48.9325V87.6383Z" fill="white"/>
<path d="M75.7644 27.9644H33.7963C26.7029 27.9644 20.9529 21.9382 20.9529 14.5041C20.9529 7.06996 26.7029 1.04376 33.7963 1.04376H75.7644C82.8578 1.04376 88.6077 7.06996 88.6077 14.5041C88.6077 21.9382 82.8578 27.9644 75.7644 27.9644Z" fill="#D68E3D"/>
<path d="M27.7263 14.5041C27.7263 7.07044 33.4762 1.04376 40.5696 1.04376H33.7963C26.7029 1.04376 20.9529 7.07044 20.9529 14.5041C20.9529 21.9382 26.7029 27.9644 33.7963 27.9644H40.5696C33.4762 27.9644 27.7263 21.9382 27.7263 14.5041Z" fill="#D68E3D"/>
<path d="M55.4999 85.2856C57.028 85.2856 58.2708 83.9832 58.2708 82.3817C58.2708 80.7801 57.028 79.4777 55.4999 79.4777C53.9718 79.4777 52.7291 80.7801 52.7291 82.3817C52.7291 83.9832 53.9718 85.2856 55.4999 85.2856ZM55.4999 80.9297C56.2637 80.9297 56.8853 81.5812 56.8853 82.3817C56.8853 83.1822 56.2637 83.8337 55.4999 83.8337C54.7361 83.8337 54.1145 83.1822 54.1145 82.3817C54.1145 81.5812 54.7361 80.9297 55.4999 80.9297Z" fill="#868686"/>
<path d="M9.00663 107.081H0.692711C0.310334 107.081 0 107.407 0 107.807C0 108.208 0.310334 108.533 0.692711 108.533H9.00663C9.38901 108.533 9.69934 108.208 9.69934 107.807C9.69934 107.407 9.38901 107.081 9.00663 107.081Z" fill="#868686"/>
<path d="M110.307 107.081H101.993C101.611 107.081 101.301 107.407 101.301 107.807C101.301 108.208 101.611 108.533 101.993 108.533H110.307C110.69 108.533 111 108.208 111 107.807C111 107.407 110.69 107.081 110.307 107.081Z" fill="#868686"/>
<path d="M97.2836 107.081H13.7159C13.3335 107.081 13.0232 107.407 13.0232 107.807C13.0232 108.208 13.3335 108.533 13.7159 108.533H97.2841C97.6665 108.533 97.9768 108.208 97.9768 107.807C97.9768 107.407 97.6665 107.081 97.2836 107.081Z" fill="#868686"/>
<path d="M0.692711 103.222H37.8627H73.1369H110.307C110.689 103.222 111 102.896 111 102.496C111 102.095 110.689 101.77 110.307 101.77H73.8296V98.0443C73.8296 97.6436 73.5193 97.3184 73.1369 97.3184H68.8134V88.046H99.8178C103.679 88.046 106.821 84.7534 106.821 80.7068V20.8001C106.821 16.7529 103.679 13.4603 99.8178 13.4603H90.0026C89.641 5.97392 83.716 0 76.4845 0H34.5159C27.2845 0 21.3595 5.97392 20.9975 13.4603H11.1822C7.32103 13.4603 4.17936 16.7529 4.17936 20.8001V80.7068C4.17936 84.7534 7.32103 88.046 11.1822 88.046H42.1866V97.3184H37.8631C37.4807 97.3184 37.1704 97.6436 37.1704 98.0443V101.77H0.692711C0.310334 101.77 0 102.095 0 102.496C0 102.896 0.310334 103.222 0.692711 103.222ZM34.5159 28.3721H76.4845C82.343 28.3721 87.3421 24.4508 89.2226 18.9822H99.8183C100.774 18.9822 101.552 19.7977 101.552 20.7996V74.8988C101.552 75.9012 100.774 76.7167 99.8183 76.7167H11.1822C10.2263 76.7167 9.44812 75.9012 9.44812 74.8988V47.8492V20.7996C9.44812 19.7977 10.2263 18.9822 11.1822 18.9822H21.7779C23.6584 24.4508 28.6575 28.3721 34.5159 28.3721ZM34.5159 1.45198H76.4845C83.1844 1.45198 88.6351 7.16454 88.6351 14.1863C88.6351 21.2081 83.1844 26.9206 76.4845 26.9206H34.5159C27.816 26.9206 22.3653 21.2081 22.3653 14.1863C22.3653 7.16454 27.816 1.45198 34.5159 1.45198ZM5.56478 80.7068V20.8001C5.56478 17.5534 8.08486 14.9123 11.1822 14.9123H20.9975C21.0409 15.8096 21.1674 16.6842 21.3632 17.5302H11.1822C9.46197 17.5302 8.06269 18.9967 8.06269 20.7996V74.8988C8.06269 76.7022 9.46197 78.1687 11.1822 78.1687H99.8178C101.538 78.1687 102.937 76.7022 102.937 74.8988V20.7996C102.937 18.9967 101.538 17.5302 99.8178 17.5302H89.6368C89.8326 16.6837 89.9591 15.8096 90.0026 14.9123H99.8178C102.915 14.9123 105.435 17.5534 105.435 20.8001V80.7068C105.435 83.9529 102.915 86.594 99.8178 86.594H68.1207H42.8793H11.1822C8.08486 86.594 5.56478 83.9529 5.56478 80.7068ZM43.572 88.046H67.428V97.3184H43.572V88.046ZM38.5558 98.7703H42.8793H68.1207H72.4442V101.77H38.5558V98.7703Z" fill="#868686"/>
<path d="M42.2285 21.4273C42.634 21.8528 43.166 22.0652 43.698 22.0652C44.23 22.0652 44.762 21.8528 45.1675 21.4273C45.9793 20.577 45.9793 19.1981 45.1675 18.3477L41.3271 14.3218L45.1675 10.2965C45.9793 9.44609 45.9793 8.06719 45.1675 7.21682C44.3565 6.36596 43.0399 6.36596 42.229 7.21682L36.9182 12.7818C36.1063 13.6321 36.1063 15.011 36.9182 15.8614L42.2285 21.4273Z" fill="#0C4C51"/>
<path d="M65.8329 21.4274C66.2389 21.8528 66.7704 22.0653 67.3024 22.0653C67.8344 22.0653 68.3664 21.8528 68.7719 21.4274L74.0822 15.8615C74.894 15.0111 74.894 13.6322 74.0822 12.7818L68.7719 7.21639C67.9609 6.36553 66.6443 6.36553 65.8334 7.21639C65.0215 8.06677 65.0215 9.44566 65.8334 10.296L69.6738 14.3214L65.8334 18.3473C65.0211 19.1981 65.0211 20.5775 65.8329 21.4274Z" fill="#0C4C51"/>
<path d="M51.0539 24.515C51.3458 24.6635 51.6543 24.7332 51.9581 24.7332C52.7298 24.7332 53.471 24.2807 53.8299 23.5039L60.9112 8.1773C61.4113 7.09509 60.9796 5.79218 59.9465 5.26802C58.9134 4.74192 57.6702 5.1959 57.1706 6.27908L50.0892 21.6057C49.5891 22.6884 50.0209 23.9908 51.0539 24.515Z" fill="#0C4C51"/>
</svg>
