<svg width="135" height="135" viewBox="0 0 135 135" fill="none" xmlns="http://www.w3.org/2000/svg">
<path d="M134.995 92.9506L133.465 77.4963L77.9782 48.6405C77.9782 48.6405 78.4737 38.8438 77.9782 24.4018C77.4311 15.3268 73.8984 6.71725 67.9655 0L67.9927 0.033743H67.0018C61.1032 6.71083 57.5814 15.2635 57.0163 24.2837L57.0109 24.4018C56.5154 38.8382 57.0109 48.6405 57.0109 48.6405L1.52995 77.4963L0 92.9506L37.5082 81.2868L56.5154 78.0137C55.8296 91.5366 57.1759 105.088 60.5063 118.185L60.3103 117.274L45.4573 123.432V133.543L64.6225 129.044C65.4664 130.799 66.2559 132.227 67.1053 133.611L66.9909 133.414V135C67.1652 134.741 67.3285 134.46 67.4973 134.196C67.6715 134.454 67.8294 134.736 68.0091 135V133.414C68.7441 132.233 69.5336 130.805 70.2523 129.331L70.3775 129.044L89.5426 133.543V123.432L74.6897 117.274C77.2105 107.528 78.6534 96.3362 78.6534 84.8017C78.6534 82.4116 78.5935 80.0383 78.4682 77.6819L78.4846 78.0081L97.4973 81.2812L135 92.945L134.995 92.9506Z" fill="white"/>
</svg>
