<svg width="120" height="128" viewBox="0 0 120 128" fill="none" xmlns="http://www.w3.org/2000/svg">
<path d="M105.438 109.25C86.0312 109.25 60.4375 120.5 60.4375 120.5V58.625C60.4375 58.625 85.75 47.375 111.062 47.375L105.438 109.25Z" fill="white"/>
<path d="M15.4375 109.25C34.8438 109.25 60.4375 120.5 60.4375 120.5V58.625C60.4375 58.625 35.125 47.375 9.8125 47.375L15.4375 109.25Z" fill="white"/>
<path d="M60.4375 53C72.8639 53 82.9375 42.9264 82.9375 30.5C82.9375 18.0736 72.8639 8 60.4375 8C48.0111 8 37.9375 18.0736 37.9375 30.5C37.9375 42.9264 48.0111 53 60.4375 53Z" fill="#E48B05"/>
<path d="M108.25 86.75H111.063C112.75 86.75 113.875 85.625 113.875 83.9375V72.6875C113.875 71 112.75 69.875 111.063 69.875H108.25C103.469 69.875 99.8125 73.5313 99.8125 78.3125C99.8125 83.0938 103.469 86.75 108.25 86.75ZM12.625 69.875H9.8125C8.125 69.875 7 71 7 72.6875V83.9375C7 85.625 8.125 86.75 9.8125 86.75H12.625C17.4063 86.75 21.0625 83.0938 21.0625 78.3125C21.0625 73.5313 17.4063 69.875 12.625 69.875Z" fill="#E48B05"/>
</svg>
