<svg width="45" height="45" viewBox="0 0 45 45" fill="none" xmlns="http://www.w3.org/2000/svg">
<path d="M30.3745 21.9366C30.3745 21.4891 30.1967 21.0599 29.8803 20.7434C29.5638 20.4269 29.1346 20.2491 28.687 20.2491C28.2395 20.2491 27.8102 20.4269 27.4938 20.7434C27.1773 21.0599 26.9995 21.4891 26.9995 21.9366V26.4366C26.9995 26.8842 27.1773 27.3134 27.4938 27.6299C27.8102 27.9464 28.2395 28.1241 28.687 28.1241C29.1346 28.1241 29.5638 27.9464 29.8803 27.6299C30.1967 27.3134 30.3745 26.8842 30.3745 26.4366V21.9366Z" fill="#C293FE"/>
<path d="M21.9365 20.2491C22.3841 20.2491 22.8133 20.4269 23.1298 20.7434C23.4462 21.0599 23.624 21.4891 23.624 21.9366V26.4366C23.624 26.8842 23.4462 27.3134 23.1298 27.6299C22.8133 27.9464 22.3841 28.1241 21.9365 28.1241C21.489 28.1241 21.0597 27.9464 20.7433 27.6299C20.4268 27.3134 20.249 26.8842 20.249 26.4366V21.9366C20.249 21.4891 20.4268 21.0599 20.7433 20.7434C21.0597 20.4269 21.489 20.2491 21.9365 20.2491Z" fill="#C293FE"/>
<path d="M16.876 21.9366C16.876 21.4891 16.6982 21.0599 16.3817 20.7434C16.0653 20.4269 15.636 20.2491 15.1885 20.2491C14.7409 20.2491 14.3117 20.4269 13.9952 20.7434C13.6788 21.0599 13.501 21.4891 13.501 21.9366V26.4366C13.501 26.8842 13.6788 27.3134 13.9952 27.6299C14.3117 27.9464 14.7409 28.1241 15.1885 28.1241C15.636 28.1241 16.0653 27.9464 16.3817 27.6299C16.6982 27.3134 16.876 26.8842 16.876 26.4366V21.9366Z" fill="#C293FE"/>
<path d="M8.43799 30.3759C8.88554 30.3759 9.31476 30.5536 9.63123 30.8701C9.9477 31.1866 10.1255 31.6158 10.1255 32.0634V37.6884C10.1255 38.1359 9.9477 38.5651 9.63123 38.8816C9.31476 39.1981 8.88554 39.3759 8.43799 39.3759C7.99044 39.3759 7.56121 39.1981 7.24475 38.8816C6.92828 38.5651 6.75049 38.1359 6.75049 37.6884V32.0634C6.75049 31.6158 6.92828 31.1866 7.24475 30.8701C7.56121 30.5536 7.99044 30.3759 8.43799 30.3759Z" fill="#C293FE"/>
<path d="M38.2505 32.0634C38.2505 31.6158 38.0727 31.1866 37.7562 30.8701C37.4398 30.5536 37.0105 30.3759 36.563 30.3759C36.1154 30.3759 35.6862 30.5536 35.3697 30.8701C35.0533 31.1866 34.8755 31.6158 34.8755 32.0634V37.6884C34.8755 38.1359 35.0533 38.5651 35.3697 38.8816C35.6862 39.1981 36.1154 39.3759 36.563 39.3759C37.0105 39.3759 37.4398 39.1981 37.7562 38.8816C38.0727 38.5651 38.2505 38.1359 38.2505 37.6884V32.0634Z" fill="#C293FE"/>
<path d="M21.9375 0H30.375C30.6734 0 30.9595 0.118527 31.1705 0.329505C31.3815 0.540484 31.5 0.826631 31.5 1.125V5.625C31.5 5.92337 31.3815 6.20952 31.1705 6.4205C30.9595 6.63147 30.6734 6.75 30.375 6.75H23.625V9.0405C27.5972 9.32495 31.3142 11.1036 34.0277 14.0184C36.7413 16.9331 38.2499 20.7676 38.25 24.75H39.9375C41.2802 24.75 42.5678 25.2834 43.5172 26.2328C44.4666 27.1822 45 28.4698 45 29.8125V43.3125C45 43.7601 44.8222 44.1893 44.5057 44.5057C44.1893 44.8222 43.7601 45 43.3125 45H1.6875C1.23995 45 0.810725 44.8222 0.494257 44.5057C0.177789 44.1893 0 43.7601 0 43.3125V29.8125C0 28.4698 0.533369 27.1822 1.48277 26.2328C2.43217 25.2834 3.71984 24.75 5.0625 24.75H6.75C6.74996 20.9622 8.11458 17.3012 10.5939 14.4376C13.0732 11.574 16.5012 9.69954 20.25 9.1575V1.6875C20.25 1.23995 20.4278 0.810725 20.7443 0.494257C21.0607 0.177789 21.4899 0 21.9375 0ZM22.5 12.375C19.2179 12.375 16.0703 13.6788 13.7496 15.9996C11.4288 18.3203 10.125 21.4679 10.125 24.75V26.4375C10.125 26.8851 9.94721 27.3143 9.63074 27.6307C9.31428 27.9472 8.88505 28.125 8.4375 28.125H5.0625C4.61495 28.125 4.18572 28.3028 3.86926 28.6193C3.55279 28.9357 3.375 29.3649 3.375 29.8125V41.625H16.875V35.4375C16.875 34.9899 17.0528 34.5607 17.3693 34.2443C17.6857 33.9278 18.1149 33.75 18.5625 33.75H26.4375C26.8851 33.75 27.3143 33.9278 27.6307 34.2443C27.9472 34.5607 28.125 34.9899 28.125 35.4375V41.625H41.625V29.8125C41.625 29.3649 41.4472 28.9357 41.1307 28.6193C40.8143 28.3028 40.3851 28.125 39.9375 28.125H36.5625C36.1149 28.125 35.6857 27.9472 35.3693 27.6307C35.0528 27.3143 34.875 26.8851 34.875 26.4375V24.75C34.875 21.4679 33.5712 18.3203 31.2504 15.9996C28.9297 13.6788 25.7821 12.375 22.5 12.375ZM24.75 37.125H20.25V41.625H24.75V37.125Z" fill="#C293FE"/>
</svg>
