<svg width="45" height="45" viewBox="0 0 45 45" fill="none" xmlns="http://www.w3.org/2000/svg">
<path fill-rule="evenodd" clip-rule="evenodd" d="M41.25 2.5H3.75C3.41848 2.5 3.10054 2.6317 2.86612 2.86612C2.6317 3.10054 2.5 3.41848 2.5 3.75V41.25C2.5 41.5815 2.6317 41.8995 2.86612 42.1339C3.10054 42.3683 3.41848 42.5 3.75 42.5H41.25C41.5815 42.5 41.8995 42.3683 42.1339 42.1339C42.3683 41.8995 42.5 41.5815 42.5 41.25V3.75C42.5 3.41848 42.3683 3.10054 42.1339 2.86612C41.8995 2.6317 41.5815 2.5 41.25 2.5ZM3.75 0C2.75544 0 1.80161 0.395088 1.09835 1.09835C0.395088 1.80161 0 2.75544 0 3.75V41.25C0 42.2446 0.395088 43.1984 1.09835 43.9016C1.80161 44.6049 2.75544 45 3.75 45H41.25C42.2446 45 43.1984 44.6049 43.9016 43.9016C44.6049 43.1984 45 42.2446 45 41.25V3.75C45 2.75544 44.6049 1.80161 43.9016 1.09835C43.1984 0.395088 42.2446 0 41.25 0H3.75Z" fill="#79EBB0"/>
<path d="M16.2495 17.5004C16.2495 18.495 15.8544 19.4488 15.1512 20.1521C14.4479 20.8553 13.4941 21.2504 12.4995 21.2504C11.505 21.2504 10.5511 20.8553 9.84786 20.1521C9.1446 19.4488 8.74951 18.495 8.74951 17.5004C8.74951 16.5059 9.1446 15.552 9.84786 14.8488C10.5511 14.1455 11.505 13.7504 12.4995 13.7504C13.4941 13.7504 14.4479 14.1455 15.1512 14.8488C15.8544 15.552 16.2495 16.5059 16.2495 17.5004Z" fill="#79EBB0"/>
<path fill-rule="evenodd" clip-rule="evenodd" d="M7.82098 26.55C7.55848 26.8137 7.50098 27.0112 7.50098 27.1587V31.25H5.00098V27.1587C5.00098 26.1737 5.46348 25.3775 6.04723 24.7887C6.62098 24.2125 7.35973 23.78 8.09348 23.4588C9.55348 22.8213 11.286 22.5 12.501 22.5C13.7147 22.5 15.4485 22.8213 16.9085 23.4588C17.6422 23.78 18.381 24.2125 18.9547 24.7887C19.5397 25.3775 20.001 26.1737 20.001 27.1587V31.25H17.501V27.1587C17.501 27.0112 17.4422 26.8137 17.181 26.5512C16.9085 26.2762 16.476 25.9988 15.9072 25.75C14.7647 25.25 13.3722 25 12.501 25C11.6297 25 10.2385 25.25 9.09473 25.75C8.52598 25.9975 8.09473 26.275 7.82098 26.55Z" fill="#79EBB0"/>
<path fill-rule="evenodd" clip-rule="evenodd" d="M27.8205 26.55C27.558 26.8137 27.5005 27.0112 27.5005 27.1587V31.25H25.0005V27.1587C25.0005 26.1737 25.463 25.3775 26.0467 24.7887C26.6205 24.2125 27.3592 23.78 28.093 23.4588C29.553 22.8213 31.2867 22.5 32.5005 22.5C33.7142 22.5 35.448 22.8213 36.908 23.4588C37.6417 23.78 38.3805 24.2125 38.9542 24.7887C39.5392 25.3775 40.0005 26.1737 40.0005 27.1587V31.25H37.5005V27.1587C37.5005 27.0112 37.4417 26.8137 37.1805 26.5512C36.908 26.2762 36.4755 25.9988 35.9067 25.75C34.7642 25.25 33.3717 25 32.5005 25C31.6292 25 30.238 25.25 29.0942 25.75C28.5255 25.9975 28.0942 26.275 27.8205 26.55Z" fill="#79EBB0"/>
<path d="M36.249 17.5004C36.249 18.495 35.8539 19.4488 35.1507 20.1521C34.4474 20.8553 33.4936 21.2504 32.499 21.2504C31.5045 21.2504 30.5506 20.8553 29.8474 20.1521C29.1441 19.4488 28.749 18.495 28.749 17.5004C28.749 16.5059 29.1441 15.552 29.8474 14.8488C30.5506 14.1455 31.5045 13.7504 32.499 13.7504C33.4936 13.7504 34.4474 14.1455 35.1507 14.8488C35.8539 15.552 36.249 16.5059 36.249 17.5004Z" fill="#79EBB0"/>
<path d="M26.2495 15C26.2495 15.9946 25.8544 16.9484 25.1512 17.6517C24.4479 18.3549 23.4941 18.75 22.4995 18.75C21.505 18.75 20.5511 18.3549 19.8479 17.6517C19.1446 16.9484 18.7495 15.9946 18.7495 15C18.7495 14.0054 19.1446 13.0516 19.8479 12.3483C20.5511 11.6451 21.505 11.25 22.4995 11.25C23.4941 11.25 24.4479 11.6451 25.1512 12.3483C25.8544 13.0516 26.2495 14.0054 26.2495 15Z" fill="#79EBB0"/>
<path fill-rule="evenodd" clip-rule="evenodd" d="M20.8716 23.7442C20.5179 23.7792 20.3966 23.8592 20.3079 23.958L18.4429 22.293C19.0991 21.558 19.9179 21.3255 20.6279 21.2555C21.0579 21.2142 21.5904 21.2292 22.0279 21.2405C22.2054 21.2455 22.3679 21.2505 22.5004 21.2505C22.6329 21.2505 22.7954 21.2455 22.9741 21.2405C23.4104 21.228 23.9429 21.2155 24.3716 21.2567C25.0841 21.3255 25.9016 21.558 26.5579 22.293L24.6929 23.958C24.6054 23.8592 24.4829 23.7792 24.1291 23.7455C23.8988 23.7271 23.6676 23.7221 23.4366 23.7305L23.1841 23.7367C22.9716 23.743 22.7304 23.7505 22.5004 23.7505C22.2704 23.7505 22.0291 23.743 21.8166 23.738L21.5641 23.7305C21.3332 23.7216 21.102 23.7262 20.8716 23.7442Z" fill="#79EBB0"/>
</svg>
