<svg width="41" height="45" viewBox="0 0 41 45" fill="none" xmlns="http://www.w3.org/2000/svg">
<path d="M20.4536 12.2725C21.5833 12.2725 22.499 11.3567 22.499 10.2271C22.499 9.0974 21.5833 8.18164 20.4536 8.18164C19.324 8.18164 18.4082 9.0974 18.4082 10.2271C18.4082 11.3567 19.324 12.2725 20.4536 12.2725Z" fill="#8E83DD"/>
<path d="M8.18115 32.7266H32.7261V36.8174H8.18115V32.7266Z" fill="#8E83DD"/>
<path d="M16.3628 22.1518L22.0736 27.8667L30.1161 19.818L32.7261 22.4995V14.3179H24.5444L27.2239 16.9258L22.0715 22.0782L16.3628 16.3633L8.18115 24.5449L11.0734 27.4371L16.3628 22.1518Z" fill="#8E83DD"/>
<path d="M34.7715 4.0918H28.0257C27.8249 3.78937 27.6063 3.49909 27.3712 3.2225L27.3507 3.19795C25.8479 1.4476 23.7336 0.337005 21.4395 0.0930206C20.7881 -0.0310069 20.1191 -0.0310069 19.4677 0.0930206C17.1737 0.337005 15.0593 1.4476 13.5565 3.19795L13.536 3.2225C13.301 3.49843 13.0824 3.78802 12.8815 4.08975V4.0918H6.13574C4.50881 4.09342 2.94898 4.74044 1.79857 5.89085C0.648152 7.04127 0.00113621 8.6011 -0.000488281 10.228V38.8638C0.00113621 40.4907 0.648152 42.0505 1.79857 43.2009C2.94898 44.3514 4.50881 44.9984 6.13574 45H34.7715C36.3984 44.9984 37.9582 44.3514 39.1087 43.2009C40.2591 42.0505 40.9061 40.4907 40.9077 38.8638V10.228C40.9061 8.6011 40.2591 7.04127 39.1087 5.89085C37.9582 4.74044 36.3984 4.09342 34.7715 4.0918ZM36.8169 38.8638C36.8169 39.4062 36.6014 39.9265 36.2178 40.3101C35.8342 40.6937 35.314 40.9092 34.7715 40.9092H6.13574C5.59343 40.9086 5.07349 40.693 4.69002 40.3095C4.30655 39.926 4.09087 39.4061 4.09033 38.8638V10.228C4.09087 9.68572 4.30655 9.16577 4.69002 8.7823C5.07349 8.39883 5.59343 8.18316 6.13574 8.18262H15.4424C15.6771 7.02667 16.3042 5.98741 17.2175 5.24093C18.1308 4.49446 19.2741 4.08667 20.4536 4.08667C21.6332 4.08667 22.7764 4.49446 23.6897 5.24093C24.603 5.98741 25.2301 7.02667 25.4649 8.18262H34.7715C35.3138 8.18316 35.8337 8.39883 36.2172 8.7823C36.6007 9.16577 36.8164 9.68572 36.8169 10.228V38.8638Z" fill="#8E83DD"/>
</svg>
